<svg xmlns="http://www.w3.org/2000/svg" viewBox="0 0 32 40" x="0px" y="0px"><title>message</title><desc>e-commerce</desc><metadata><?xpacket begin="&#2aeffc;" id="W5M0MpCehiHzreSzNTczkc9d"?><x:xmpmeta xmlns:x="adobe:ns:meta/" x:xmptk="Adobe XMP Core 5.6-c148 79.163820, 2019/02/20-18:54:02        "/><?xpacket end="w"?></metadata><g><path d="M16,16.71,27.7,7.13A2,2,0,0,0,27,7H5a2,2,0,0,0-.7.13Z" fill="#2aeffc"/><path d="M16.63,18.77a1.1,1.1,0,0,1-.14.09l-.11.06A1,1,0,0,1,16,19h0a1,1,0,0,1-.38-.08l-.11-.06a1.1,1.1,0,0,1-.14-.09L3,8.68C3,8.79,3,8.89,3,9V23a2,2,0,0,0,2,2H27a2,2,0,0,0,2-2V9c0-.11,0-.21,0-.32Z" fill="#2aeffc"/></g></svg>