<svg width="56" height="56" viewBox="0 0 56 56" fill="none" xmlns="http://www.w3.org/2000/svg">
<circle cx="28" cy="28" r="28" fill="#27598A"/>
<path d="M44.7025 25.7306H43.2951V23.7113C43.2951 23.1622 42.8457 22.7171 42.2913 22.7171H12.2096C11.6552 22.7171 11.2058 23.1622 11.2058 23.7113V32.58C11.2058 36.0528 12.5796 39.3267 15.0744 41.7977C15.7889 42.5054 16.5701 43.1219 17.4029 43.6414H11.0038C10.4494 43.6414 10 44.0866 10 44.6357C10 45.1848 10.4494 45.6299 11.0038 45.6299H24.3791H30.1222H43.4971C44.0515 45.6299 44.5009 45.1848 44.5009 44.6357C44.5009 44.0866 44.0515 43.6414 43.4971 43.6414H37.098C37.9308 43.1219 38.712 42.5054 39.4265 41.7977C40.287 40.9449 41.0145 39.9969 41.5979 38.9781H44.7025C48.2633 38.9781 51.16 36.1081 51.16 32.58V32.1262C51.16 28.5997 48.2633 25.7306 44.7025 25.7306ZM49.1524 32.58C49.1524 35.0115 47.1561 36.9896 44.7029 36.9896H42.5219C43.0305 35.5923 43.2959 34.1055 43.2959 32.58V27.7191H44.7033C47.157 27.7191 49.1528 29.6963 49.1528 32.1262L49.1524 32.58ZM20.0275 11.7551C20.0275 11.0029 19.686 10.2853 19.0665 9.73454C18.6541 9.36763 18.6197 8.73905 18.9901 8.33054C19.3605 7.92161 19.9952 7.88791 20.4076 8.25483C21.4572 9.18791 22.0355 10.4309 22.0355 11.7555C22.0355 13.08 21.4576 14.323 20.4076 15.2561C19.7877 15.8069 19.4466 16.5245 19.4466 17.2766C19.4466 18.0271 19.7885 18.7451 20.4089 19.2984C20.8209 19.6657 20.8541 20.2947 20.4832 20.7028C20.285 20.9208 20.0115 21.0319 19.7369 21.0319C19.4975 21.0319 19.2572 20.9478 19.0657 20.7764C18.0165 19.8413 17.439 18.5983 17.439 17.2766C17.439 15.9525 18.017 14.7091 19.067 13.776C19.686 13.2244 20.0275 12.5068 20.0275 11.7551ZM26.8869 11.7551C26.8869 11.0013 26.5459 10.2841 25.9268 9.73537C25.5135 9.36929 25.4783 8.74071 25.8483 8.33137C26.2179 7.92203 26.8525 7.88708 27.2658 8.25358C28.3162 9.18459 28.8945 10.428 28.8945 11.7551C28.8945 13.0821 28.3162 14.3255 27.2658 15.2565C26.6484 15.8052 26.3082 16.5228 26.3082 17.2762C26.3082 18.0279 26.6492 18.7459 27.2683 19.298C27.6803 19.6653 27.7135 20.2943 27.3426 20.7024C27.1444 20.9204 26.871 21.0314 26.5963 21.0314C26.3569 21.0314 26.1167 20.9474 25.9251 20.776C24.8777 19.8421 24.3006 18.5991 24.3006 17.2762C24.3006 15.9508 24.8781 14.7074 25.926 13.7756C26.5459 13.2256 26.8869 12.5084 26.8869 11.7551ZM33.7489 11.7551C33.7489 11.0029 33.4074 10.2853 32.7879 9.73454C32.3755 9.36763 32.3411 8.73905 32.7111 8.33054C33.0815 7.92203 33.7161 7.88791 34.1286 8.25483C35.1782 9.18791 35.7565 10.4309 35.7565 11.7555C35.7565 13.0796 35.1786 14.323 34.1286 15.2561C33.5087 15.8069 33.1676 16.5245 33.1676 17.2766C33.1676 18.0271 33.5095 18.7451 34.1298 19.2984C34.5419 19.6657 34.575 20.2947 34.2042 20.7028C34.0059 20.9208 33.7325 21.0319 33.4578 21.0319C33.2184 21.0319 32.9782 20.9478 32.7867 20.7764C31.7375 19.8413 31.16 18.5983 31.16 17.2766C31.16 15.9525 31.7379 14.7091 32.7879 13.776C33.4074 13.2244 33.7489 12.5072 33.7489 11.7551Z" fill="#2AEFFC"/>
</svg>
