<svg width="236" height="33" viewBox="0 0 236 33" fill="none" xmlns="http://www.w3.org/2000/svg">
<path d="M20.512 24.168C20.224 24.168 19.992 24.096 19.816 23.952C19.64 23.792 19.496 23.56 19.384 23.256L14.08 8.112C13.968 7.776 13.992 7.496 14.152 7.272C14.328 7.032 14.6 6.912 14.968 6.912C15.24 6.912 15.456 6.984 15.616 7.128C15.776 7.256 15.912 7.464 16.024 7.752L20.992 22.32H20.152L25.216 7.824C25.328 7.52 25.464 7.296 25.624 7.152C25.784 6.992 26 6.912 26.272 6.912C26.528 6.912 26.728 6.992 26.872 7.152C27.032 7.296 27.168 7.52 27.28 7.824L32.272 22.32H31.528L36.544 7.752C36.624 7.48 36.744 7.272 36.904 7.128C37.08 6.984 37.304 6.912 37.576 6.912C37.912 6.912 38.16 7.024 38.32 7.248C38.48 7.472 38.496 7.76 38.368 8.112L33.04 23.256C32.928 23.56 32.784 23.792 32.608 23.952C32.448 24.096 32.216 24.168 31.912 24.168C31.624 24.168 31.392 24.096 31.216 23.952C31.056 23.792 30.912 23.56 30.784 23.256L25.96 9.36H26.488L21.616 23.256C21.504 23.56 21.368 23.792 21.208 23.952C21.048 24.096 20.816 24.168 20.512 24.168ZM42.7606 24.12C42.4406 24.12 42.2006 24.032 42.0406 23.856C41.8806 23.664 41.8006 23.4 41.8006 23.064V13.248C41.8006 12.912 41.8806 12.656 42.0406 12.48C42.2006 12.304 42.4406 12.216 42.7606 12.216C43.0646 12.216 43.3046 12.304 43.4806 12.48C43.6566 12.656 43.7446 12.912 43.7446 13.248V23.064C43.7446 23.4 43.6566 23.664 43.4806 23.856C43.3206 24.032 43.0806 24.12 42.7606 24.12ZM42.7606 9.528C42.3606 9.528 42.0486 9.424 41.8246 9.216C41.6006 8.992 41.4886 8.696 41.4886 8.328C41.4886 7.944 41.6006 7.656 41.8246 7.464C42.0486 7.256 42.3606 7.152 42.7606 7.152C43.1766 7.152 43.4886 7.256 43.6966 7.464C43.9206 7.656 44.0326 7.944 44.0326 8.328C44.0326 8.696 43.9206 8.992 43.6966 9.216C43.4886 9.424 43.1766 9.528 42.7606 9.528ZM50.9307 24.216C49.7787 24.216 48.8987 23.864 48.2907 23.16C47.6827 22.456 47.3787 21.448 47.3787 20.136V7.896C47.3787 7.576 47.4587 7.336 47.6187 7.176C47.7787 7 48.0187 6.912 48.3387 6.912C48.6427 6.912 48.8827 7 49.0587 7.176C49.2347 7.336 49.3227 7.576 49.3227 7.896V19.992C49.3227 20.856 49.4907 21.504 49.8267 21.936C50.1787 22.352 50.6907 22.56 51.3627 22.56C51.5067 22.56 51.6347 22.552 51.7467 22.536C51.8587 22.52 51.9707 22.512 52.0827 22.512C52.2587 22.496 52.3787 22.536 52.4427 22.632C52.5227 22.728 52.5627 22.92 52.5627 23.208C52.5627 23.496 52.4987 23.712 52.3707 23.856C52.2427 24 52.0347 24.096 51.7467 24.144C51.6187 24.16 51.4827 24.176 51.3387 24.192C51.1947 24.208 51.0587 24.216 50.9307 24.216ZM58.0323 24.216C56.8803 24.216 56.0003 23.864 55.3923 23.16C54.7843 22.456 54.4803 21.448 54.4803 20.136V7.896C54.4803 7.576 54.5603 7.336 54.7203 7.176C54.8803 7 55.1203 6.912 55.4403 6.912C55.7443 6.912 55.9843 7 56.1603 7.176C56.3363 7.336 56.4243 7.576 56.4243 7.896V19.992C56.4243 20.856 56.5923 21.504 56.9283 21.936C57.2803 22.352 57.7923 22.56 58.4643 22.56C58.6083 22.56 58.7363 22.552 58.8483 22.536C58.9603 22.52 59.0723 22.512 59.1843 22.512C59.3603 22.496 59.4803 22.536 59.5443 22.632C59.6243 22.728 59.6643 22.92 59.6643 23.208C59.6643 23.496 59.6003 23.712 59.4723 23.856C59.3443 24 59.1363 24.096 58.8483 24.144C58.7203 24.16 58.5843 24.176 58.4403 24.192C58.2963 24.208 58.1603 24.216 58.0323 24.216ZM62.5418 24.12C62.2218 24.12 61.9818 24.032 61.8218 23.856C61.6618 23.664 61.5818 23.4 61.5818 23.064V13.248C61.5818 12.912 61.6618 12.656 61.8218 12.48C61.9818 12.304 62.2218 12.216 62.5418 12.216C62.8458 12.216 63.0858 12.304 63.2618 12.48C63.4378 12.656 63.5258 12.912 63.5258 13.248V23.064C63.5258 23.4 63.4378 23.664 63.2618 23.856C63.1018 24.032 62.8618 24.12 62.5418 24.12ZM62.5418 9.528C62.1418 9.528 61.8298 9.424 61.6058 9.216C61.3818 8.992 61.2698 8.696 61.2698 8.328C61.2698 7.944 61.3818 7.656 61.6058 7.464C61.8298 7.256 62.1418 7.152 62.5418 7.152C62.9578 7.152 63.2698 7.256 63.4778 7.464C63.7018 7.656 63.8138 7.944 63.8138 8.328C63.8138 8.696 63.7018 8.992 63.4778 9.216C63.2698 9.424 62.9578 9.528 62.5418 9.528ZM70.8319 24.216C70.0319 24.216 69.3119 24.064 68.6719 23.76C68.0479 23.44 67.5519 23.008 67.1839 22.464C66.8159 21.92 66.6319 21.312 66.6319 20.64C66.6319 19.776 66.8479 19.096 67.2799 18.6C67.7279 18.104 68.4559 17.752 69.4639 17.544C70.4879 17.336 71.8799 17.232 73.6399 17.232H74.7199V18.504H73.6639C72.3679 18.504 71.3439 18.568 70.5919 18.696C69.8559 18.808 69.3359 19.008 69.0319 19.296C68.7439 19.584 68.5999 19.992 68.5999 20.52C68.5999 21.176 68.8239 21.712 69.2719 22.128C69.7359 22.544 70.3599 22.752 71.1439 22.752C71.7839 22.752 72.3439 22.6 72.8239 22.296C73.3199 21.992 73.7039 21.576 73.9759 21.048C74.2639 20.52 74.4079 19.912 74.4079 19.224V16.488C74.4079 15.496 74.2079 14.784 73.8079 14.352C73.4079 13.904 72.7519 13.68 71.8399 13.68C71.2799 13.68 70.7199 13.752 70.1599 13.896C69.5999 14.04 69.0079 14.272 68.3839 14.592C68.1599 14.704 67.9679 14.744 67.8079 14.712C67.6479 14.664 67.5199 14.576 67.4239 14.448C67.3279 14.32 67.2719 14.176 67.2559 14.016C67.2399 13.84 67.2719 13.672 67.3519 13.512C67.4479 13.352 67.5919 13.224 67.7839 13.128C68.4879 12.776 69.1839 12.52 69.8719 12.36C70.5599 12.2 71.2159 12.12 71.8399 12.12C72.8479 12.12 73.6799 12.288 74.3359 12.624C74.9919 12.944 75.4799 13.44 75.7999 14.112C76.1199 14.768 76.2799 15.616 76.2799 16.656V23.16C76.2799 23.48 76.1999 23.728 76.0399 23.904C75.8959 24.08 75.6799 24.168 75.3919 24.168C75.0879 24.168 74.8559 24.08 74.6959 23.904C74.5359 23.728 74.4559 23.48 74.4559 23.16V21.288H74.6719C74.5439 21.896 74.2959 22.416 73.9279 22.848C73.5759 23.28 73.1359 23.616 72.6079 23.856C72.0799 24.096 71.4879 24.216 70.8319 24.216ZM80.8465 24.168C80.5265 24.168 80.2865 24.08 80.1265 23.904C79.9665 23.728 79.8865 23.48 79.8865 23.16V13.152C79.8865 12.832 79.9665 12.592 80.1265 12.432C80.2865 12.256 80.5185 12.168 80.8225 12.168C81.1265 12.168 81.3585 12.256 81.5185 12.432C81.6945 12.592 81.7825 12.832 81.7825 13.152V15.216L81.5185 14.928C81.8545 14 82.3985 13.304 83.1505 12.84C83.9185 12.36 84.7985 12.12 85.7905 12.12C86.7185 12.12 87.4865 12.288 88.0945 12.624C88.7185 12.96 89.1825 13.472 89.4865 14.16C89.7905 14.832 89.9425 15.688 89.9425 16.728V23.16C89.9425 23.48 89.8545 23.728 89.6785 23.904C89.5185 24.08 89.2865 24.168 88.9825 24.168C88.6625 24.168 88.4145 24.08 88.2385 23.904C88.0785 23.728 87.9985 23.48 87.9985 23.16V16.848C87.9985 15.76 87.7825 14.968 87.3505 14.472C86.9345 13.96 86.2625 13.704 85.3345 13.704C84.2625 13.704 83.4065 14.04 82.7665 14.712C82.1425 15.368 81.8305 16.248 81.8305 17.352V23.16C81.8305 23.832 81.5025 24.168 80.8465 24.168ZM107.707 24.216C105.899 24.216 104.371 23.872 103.123 23.184C101.891 22.496 100.955 21.504 100.315 20.208C99.6746 18.912 99.3546 17.36 99.3546 15.552C99.3546 14.208 99.5306 13 99.8826 11.928C100.251 10.856 100.779 9.952 101.467 9.216C102.171 8.464 103.019 7.888 104.011 7.488C105.019 7.072 106.155 6.864 107.419 6.864C108.427 6.864 109.403 7.008 110.347 7.296C111.291 7.568 112.131 8.008 112.867 8.616C113.059 8.76 113.179 8.92 113.227 9.096C113.275 9.272 113.267 9.448 113.203 9.624C113.155 9.8 113.067 9.952 112.939 10.08C112.827 10.192 112.675 10.256 112.483 10.272C112.307 10.288 112.123 10.232 111.931 10.104C111.275 9.592 110.579 9.224 109.843 9C109.107 8.76 108.291 8.64 107.395 8.64C106.115 8.64 105.027 8.912 104.131 9.456C103.251 10 102.579 10.784 102.115 11.808C101.667 12.832 101.443 14.08 101.443 15.552C101.443 17.792 101.963 19.504 103.003 20.688C104.059 21.872 105.643 22.464 107.755 22.464C108.523 22.464 109.275 22.392 110.011 22.248C110.747 22.088 111.443 21.872 112.099 21.6L111.667 22.728V16.752H108.235C107.947 16.752 107.731 16.68 107.587 16.536C107.443 16.392 107.371 16.2 107.371 15.96C107.371 15.704 107.443 15.512 107.587 15.384C107.731 15.256 107.947 15.192 108.235 15.192H112.531C112.803 15.192 113.011 15.264 113.155 15.408C113.299 15.552 113.371 15.76 113.371 16.032V22.296C113.371 22.536 113.331 22.736 113.251 22.896C113.171 23.056 113.035 23.176 112.843 23.256C112.171 23.528 111.363 23.76 110.419 23.952C109.491 24.128 108.587 24.216 107.707 24.216ZM118.089 24.12C117.769 24.12 117.529 24.032 117.369 23.856C117.209 23.664 117.129 23.4 117.129 23.064V13.248C117.129 12.912 117.209 12.656 117.369 12.48C117.529 12.304 117.769 12.216 118.089 12.216C118.393 12.216 118.633 12.304 118.809 12.48C118.985 12.656 119.073 12.912 119.073 13.248V23.064C119.073 23.4 118.985 23.664 118.809 23.856C118.649 24.032 118.409 24.12 118.089 24.12ZM118.089 9.528C117.689 9.528 117.377 9.424 117.153 9.216C116.929 8.992 116.817 8.696 116.817 8.328C116.817 7.944 116.929 7.656 117.153 7.464C117.377 7.256 117.689 7.152 118.089 7.152C118.505 7.152 118.817 7.256 119.025 7.464C119.249 7.656 119.361 7.944 119.361 8.328C119.361 8.696 119.249 8.992 119.025 9.216C118.817 9.424 118.505 9.528 118.089 9.528ZM126.379 24.216C125.579 24.216 124.859 24.064 124.219 23.76C123.595 23.44 123.099 23.008 122.731 22.464C122.363 21.92 122.179 21.312 122.179 20.64C122.179 19.776 122.395 19.096 122.827 18.6C123.275 18.104 124.003 17.752 125.011 17.544C126.035 17.336 127.427 17.232 129.187 17.232H130.267V18.504H129.211C127.915 18.504 126.891 18.568 126.139 18.696C125.403 18.808 124.883 19.008 124.579 19.296C124.291 19.584 124.147 19.992 124.147 20.52C124.147 21.176 124.371 21.712 124.819 22.128C125.283 22.544 125.907 22.752 126.691 22.752C127.331 22.752 127.891 22.6 128.371 22.296C128.867 21.992 129.251 21.576 129.523 21.048C129.811 20.52 129.955 19.912 129.955 19.224V16.488C129.955 15.496 129.755 14.784 129.355 14.352C128.955 13.904 128.299 13.68 127.387 13.68C126.827 13.68 126.267 13.752 125.707 13.896C125.147 14.04 124.555 14.272 123.931 14.592C123.707 14.704 123.515 14.744 123.355 14.712C123.195 14.664 123.067 14.576 122.971 14.448C122.875 14.32 122.819 14.176 122.803 14.016C122.787 13.84 122.819 13.672 122.899 13.512C122.995 13.352 123.139 13.224 123.331 13.128C124.035 12.776 124.731 12.52 125.419 12.36C126.107 12.2 126.763 12.12 127.387 12.12C128.395 12.12 129.227 12.288 129.883 12.624C130.539 12.944 131.027 13.44 131.347 14.112C131.667 14.768 131.827 15.616 131.827 16.656V23.16C131.827 23.48 131.747 23.728 131.587 23.904C131.443 24.08 131.227 24.168 130.939 24.168C130.635 24.168 130.403 24.08 130.243 23.904C130.083 23.728 130.003 23.48 130.003 23.16V21.288H130.219C130.091 21.896 129.843 22.416 129.475 22.848C129.123 23.28 128.683 23.616 128.155 23.856C127.627 24.096 127.035 24.216 126.379 24.216ZM140.377 24.216C139.209 24.216 138.201 23.96 137.353 23.448C136.505 22.936 135.849 22.224 135.385 21.312C134.937 20.384 134.713 19.312 134.713 18.096C134.713 17.168 134.841 16.336 135.097 15.6C135.353 14.864 135.729 14.24 136.225 13.728C136.721 13.2 137.313 12.8 138.001 12.528C138.705 12.256 139.497 12.12 140.377 12.12C140.953 12.12 141.553 12.208 142.177 12.384C142.801 12.56 143.369 12.864 143.881 13.296C144.041 13.408 144.145 13.544 144.193 13.704C144.241 13.864 144.241 14.024 144.193 14.184C144.145 14.328 144.065 14.456 143.953 14.568C143.841 14.664 143.697 14.72 143.521 14.736C143.361 14.752 143.193 14.696 143.017 14.568C142.601 14.248 142.177 14.024 141.745 13.896C141.313 13.768 140.897 13.704 140.497 13.704C139.873 13.704 139.329 13.808 138.865 14.016C138.401 14.208 138.009 14.488 137.689 14.856C137.369 15.224 137.121 15.68 136.945 16.224C136.785 16.768 136.705 17.4 136.705 18.12C136.705 19.512 137.033 20.616 137.689 21.432C138.345 22.232 139.281 22.632 140.497 22.632C140.897 22.632 141.305 22.568 141.721 22.44C142.153 22.312 142.585 22.088 143.017 21.768C143.193 21.64 143.361 21.584 143.521 21.6C143.681 21.616 143.817 21.68 143.929 21.792C144.041 21.888 144.113 22.016 144.145 22.176C144.193 22.336 144.193 22.496 144.145 22.656C144.097 22.8 143.993 22.928 143.833 23.04C143.321 23.456 142.761 23.76 142.153 23.952C141.545 24.128 140.953 24.216 140.377 24.216ZM151.156 24.216C150.02 24.216 149.036 23.968 148.204 23.472C147.372 22.976 146.724 22.28 146.26 21.384C145.812 20.472 145.588 19.4 145.588 18.168C145.588 17.24 145.716 16.408 145.972 15.672C146.228 14.92 146.604 14.28 147.1 13.752C147.596 13.224 148.18 12.824 148.852 12.552C149.54 12.264 150.308 12.12 151.156 12.12C152.292 12.12 153.276 12.368 154.108 12.864C154.94 13.36 155.58 14.064 156.028 14.976C156.492 15.872 156.724 16.936 156.724 18.168C156.724 19.096 156.596 19.928 156.34 20.664C156.084 21.4 155.708 22.04 155.212 22.584C154.716 23.112 154.124 23.52 153.436 23.808C152.764 24.08 152.004 24.216 151.156 24.216ZM151.156 22.656C151.876 22.656 152.508 22.48 153.052 22.128C153.596 21.776 154.012 21.264 154.3 20.592C154.604 19.92 154.756 19.112 154.756 18.168C154.756 16.712 154.428 15.6 153.772 14.832C153.132 14.064 152.26 13.68 151.156 13.68C150.42 13.68 149.78 13.856 149.236 14.208C148.708 14.544 148.292 15.048 147.988 15.72C147.7 16.376 147.556 17.192 147.556 18.168C147.556 19.608 147.884 20.72 148.54 21.504C149.196 22.272 150.068 22.656 151.156 22.656ZM160.652 24.168C160.332 24.168 160.092 24.08 159.932 23.904C159.772 23.728 159.692 23.48 159.692 23.16V13.152C159.692 12.832 159.772 12.592 159.932 12.432C160.092 12.256 160.324 12.168 160.628 12.168C160.932 12.168 161.164 12.256 161.324 12.432C161.5 12.592 161.588 12.832 161.588 13.152V15.264L161.324 14.928C161.628 14.032 162.116 13.344 162.788 12.864C163.476 12.368 164.292 12.12 165.236 12.12C166.228 12.12 167.028 12.36 167.636 12.84C168.26 13.304 168.676 14.032 168.884 15.024H168.524C168.812 14.128 169.324 13.424 170.06 12.912C170.812 12.384 171.684 12.12 172.676 12.12C173.556 12.12 174.276 12.288 174.836 12.624C175.412 12.96 175.844 13.472 176.132 14.16C176.42 14.832 176.564 15.688 176.564 16.728V23.16C176.564 23.48 176.476 23.728 176.3 23.904C176.14 24.08 175.9 24.168 175.58 24.168C175.276 24.168 175.036 24.08 174.86 23.904C174.7 23.728 174.62 23.48 174.62 23.16V16.824C174.62 15.752 174.436 14.968 174.068 14.472C173.7 13.96 173.076 13.704 172.196 13.704C171.236 13.704 170.476 14.04 169.916 14.712C169.372 15.368 169.1 16.264 169.1 17.4V23.16C169.1 23.48 169.012 23.728 168.836 23.904C168.676 24.08 168.436 24.168 168.116 24.168C167.812 24.168 167.572 24.08 167.396 23.904C167.236 23.728 167.156 23.48 167.156 23.16V16.824C167.156 15.752 166.964 14.968 166.58 14.472C166.212 13.96 165.596 13.704 164.732 13.704C163.772 13.704 163.012 14.04 162.452 14.712C161.908 15.368 161.636 16.264 161.636 17.4V23.16C161.636 23.832 161.308 24.168 160.652 24.168ZM185.455 24.216C184.223 24.216 183.159 23.976 182.263 23.496C181.383 23 180.695 22.304 180.199 21.408C179.719 20.512 179.479 19.44 179.479 18.192C179.479 16.976 179.719 15.92 180.199 15.024C180.679 14.112 181.335 13.4 182.167 12.888C183.015 12.376 183.991 12.12 185.095 12.12C185.879 12.12 186.583 12.256 187.207 12.528C187.831 12.784 188.359 13.16 188.791 13.656C189.239 14.152 189.575 14.752 189.799 15.456C190.039 16.16 190.159 16.952 190.159 17.832C190.159 18.088 190.087 18.28 189.943 18.408C189.799 18.52 189.591 18.576 189.319 18.576H180.967V17.304H188.863L188.479 17.616C188.479 16.752 188.351 16.024 188.095 15.432C187.839 14.824 187.463 14.36 186.967 14.04C186.487 13.72 185.879 13.56 185.143 13.56C184.327 13.56 183.631 13.752 183.055 14.136C182.495 14.504 182.071 15.024 181.783 15.696C181.495 16.352 181.351 17.12 181.351 18V18.144C181.351 19.616 181.703 20.736 182.407 21.504C183.127 22.272 184.143 22.656 185.455 22.656C185.999 22.656 186.535 22.584 187.063 22.44C187.607 22.296 188.135 22.056 188.647 21.72C188.871 21.576 189.071 21.512 189.247 21.528C189.439 21.528 189.591 21.584 189.703 21.696C189.815 21.792 189.887 21.92 189.919 22.08C189.967 22.224 189.951 22.384 189.871 22.56C189.807 22.736 189.671 22.888 189.463 23.016C188.935 23.4 188.311 23.696 187.591 23.904C186.871 24.112 186.159 24.216 185.455 24.216ZM196.524 24.216C195.372 24.216 194.492 23.864 193.884 23.16C193.276 22.456 192.972 21.448 192.972 20.136V7.896C192.972 7.576 193.052 7.336 193.212 7.176C193.372 7 193.612 6.912 193.932 6.912C194.236 6.912 194.476 7 194.652 7.176C194.828 7.336 194.916 7.576 194.916 7.896V19.992C194.916 20.856 195.084 21.504 195.42 21.936C195.772 22.352 196.284 22.56 196.956 22.56C197.1 22.56 197.228 22.552 197.34 22.536C197.452 22.52 197.564 22.512 197.676 22.512C197.852 22.496 197.972 22.536 198.036 22.632C198.116 22.728 198.156 22.92 198.156 23.208C198.156 23.496 198.092 23.712 197.964 23.856C197.836 24 197.628 24.096 197.34 24.144C197.212 24.16 197.076 24.176 196.932 24.192C196.788 24.208 196.652 24.216 196.524 24.216ZM203.626 24.216C202.474 24.216 201.594 23.864 200.986 23.16C200.378 22.456 200.074 21.448 200.074 20.136V7.896C200.074 7.576 200.154 7.336 200.314 7.176C200.474 7 200.714 6.912 201.034 6.912C201.338 6.912 201.578 7 201.754 7.176C201.93 7.336 202.018 7.576 202.018 7.896V19.992C202.018 20.856 202.186 21.504 202.522 21.936C202.874 22.352 203.386 22.56 204.058 22.56C204.202 22.56 204.33 22.552 204.442 22.536C204.554 22.52 204.666 22.512 204.778 22.512C204.954 22.496 205.074 22.536 205.138 22.632C205.218 22.728 205.258 22.92 205.258 23.208C205.258 23.496 205.194 23.712 205.066 23.856C204.938 24 204.73 24.096 204.442 24.144C204.314 24.16 204.178 24.176 204.034 24.192C203.89 24.208 203.754 24.216 203.626 24.216ZM208.136 24.12C207.816 24.12 207.576 24.032 207.416 23.856C207.256 23.664 207.176 23.4 207.176 23.064V13.248C207.176 12.912 207.256 12.656 207.416 12.48C207.576 12.304 207.816 12.216 208.136 12.216C208.44 12.216 208.68 12.304 208.856 12.48C209.032 12.656 209.12 12.912 209.12 13.248V23.064C209.12 23.4 209.032 23.664 208.856 23.856C208.696 24.032 208.456 24.12 208.136 24.12ZM208.136 9.528C207.736 9.528 207.424 9.424 207.2 9.216C206.976 8.992 206.864 8.696 206.864 8.328C206.864 7.944 206.976 7.656 207.2 7.464C207.424 7.256 207.736 7.152 208.136 7.152C208.552 7.152 208.864 7.256 209.072 7.464C209.296 7.656 209.408 7.944 209.408 8.328C209.408 8.696 209.296 8.992 209.072 9.216C208.864 9.424 208.552 9.528 208.136 9.528Z" fill="white"/>
<path d="M7 10L2 15.5L7 21" stroke="#38E8C8" stroke-width="3" stroke-linecap="round" stroke-linejoin="round"/>
<path d="M229 21L234 15.5L229 10" stroke="#38E8C8" stroke-width="3" stroke-linecap="round" stroke-linejoin="round"/>
<path d="M217 24L225 4" stroke="#38E8C8" stroke-width="3" stroke-linecap="round" stroke-linejoin="round"/>
</svg>
